# xmcd
#
# Track frame offsets: 
#        150
#        12387
#        26902
#        55705
#        69660
#        82497
#        96050
#        116165
#        129615
#        147192
#        164522
#        184687
#        207205
#        220740
#        248850
#        262275
#
# Disc length: 3797 seconds
#
# Revision: 2
# Processed by: cddbd v1.5.2PL0 Copyright (c) Steve Scherf et al.
# Submitted via: ExactAudioCopy v1.3
#
DISCID=f80ed310
DTITLE=EL TRI - Un Cuarto De Siglo [CD 1)
DYEAR=1995
DGENRE=Rock 
TTITLE0=Oye
TTITLE1=Inyecciones
TTITLE2=San Juanico
TTITLE3=Vicioso
TTITLE4=Difícil
TTITLE5=No Puedo Dejar De Chupar
TTITLE6=Santa Martha
TTITLE7=Chilango Incomprendido
TTITLE8=El Hablador
TTITLE9=Tomate La Foto
TTITLE10=Que Viva El Rocanrol
TTITLE11=Igual Pa Todos
TTITLE12=El Semental
TTITLE13=El Boogie De El Tri
TTITLE14=La Encuerada De Avandaro
TTITLE15=Viejas De Vecindad
EXTD=
EXTT0=
EXTT1=
EXTT2=
EXTT3=
EXTT4=
EXTT5=
EXTT6=
EXTT7=
EXTT8=
EXTT9=
EXTT10=
EXTT11=
EXTT12=
EXTT13=
EXTT14=
EXTT15=
PLAYORDER=
